<svg xmlns="http://www.w3.org/2000/svg" width="48" height="48" viewBox="0 0 48 48" fill="none">
    <path d="M31 11.0568V36.5568C31 39.4101 32.9429 41 35 41C36.9048 41 39 39.6477 39 36.5568V11.25C39 8.63432 37.0952 7 35 7C32.9048 7 31 8.80239 31 11.0568Z" fill="#F9AB00"/>
    <path d="M20 24.0459V36.5688C20 39.4144 21.9429 41 24 41C25.9048 41 28 39.6514 28 36.5688V24.2385C28 21.6299 26.0952 20 24 20C21.9048 20 20 21.7975 20 24.0459Z" fill="#E37400"/>
    <path d="M13 41C15.2091 41 17 39.2091 17 37C17 34.7909 15.2091 33 13 33C10.7909 33 9 34.7909 9 37C9 39.2091 10.7909 41 13 41Z" fill="#E37400"/>
</svg>
